<?xml version="1.0" standalone="no"?>
<!DOCTYPE svg PUBLIC "-//W3C//DTD SVG 20010904//EN"
 "http://www.w3.org/TR/2001/REC-SVG-20010904/DTD/svg10.dtd">
<svg version="1.0" xmlns="http://www.w3.org/2000/svg"
 width="512.000000pt" height="512.000000pt" viewBox="0 0 512.000000 512.000000"
 preserveAspectRatio="xMidYMid meet">

<g transform="translate(0.000000,512.000000) scale(0.100000,-0.100000)"
fill="#000000" stroke="none">
<path d="M1012 3573 c-36 -32 -82 -105 -97 -157 -10 -34 -43 -433 -100 -1221
-47 -643 -90 -1238 -96 -1321 -9 -132 -9 -160 5 -215 30 -114 90 -189 198
-246 l53 -28 1580 0 1580 0 57 28 c109 54 194 166 205 271 l4 41 -318 271
c-175 149 -651 556 -1058 903 -407 348 -915 782 -1129 964 -214 183 -493 421
-620 529 -127 109 -234 198 -237 198 -4 0 -16 -8 -27 -17z"/>
</g>
</svg>
